<svg width="20" height="20" viewBox="0 0 20 20" fill="none" xmlns="http://www.w3.org/2000/svg">
<path opacity="0.9" fill-rule="evenodd" clip-rule="evenodd" d="M5.05131 5.05025C4.66079 5.44078 4.66079 6.07394 5.05131 6.46447L8.58684 10L5.05131 13.5355C4.66079 13.9261 4.66079 14.5592 5.05131 14.9497C5.44183 15.3403 6.075 15.3403 6.46552 14.9497L10.0011 11.4142L13.5366 14.9497C13.9271 15.3403 14.5603 15.3403 14.9508 14.9497C15.3413 14.5592 15.3413 13.9261 14.9508 13.5355L11.4153 10L14.9508 6.46447C15.3413 6.07394 15.3413 5.44078 14.9508 5.05025C14.5603 4.65973 13.9271 4.65973 13.5366 5.05025L10.0011 8.58579L6.46552 5.05025C6.075 4.65973 5.44183 4.65973 5.05131 5.05025Z" fill="#B4B4B4"/>
</svg>
