<svg width="13" height="17" viewBox="0 0 13 17" fill="none" xmlns="http://www.w3.org/2000/svg">
<path fill-rule="evenodd" clip-rule="evenodd" d="M2.49556 0.660592C2.49556 0.660592 0.394531 3.71413 0.394531 8.177C0.394531 10.6307 1.12086 12.2078 2.10161 13.1096C3.08237 14.0114 4.18623 14.1834 4.76073 14.1834C6.01642 14.1834 6.89048 13.5207 7.61681 13.2103L6.82892 11.2305C5.8851 11.6332 5.13415 12.0359 4.76073 12.0359C4.54324 12.0359 3.98515 11.9646 3.51324 11.5325C3.04133 11.1005 2.49556 10.2239 2.49556 8.177C2.49556 5.02698 3.53786 3.1353 3.94001 2.47258C5.23674 2.95075 6.75096 3.22758 8.14207 3.84835C8.96278 4.21327 9.63576 4.69982 10.1118 5.29123C10.5878 5.88265 10.8997 6.5957 10.8997 7.70722C10.8997 8.76841 10.5016 9.28432 10.1118 9.65343C10.0461 9.71635 10.0092 9.73732 9.94763 9.78765C9.37724 8.45383 8.45804 7.15356 7.0259 5.9959L5.74558 7.70722C8.96278 10.3078 8.79864 13.3865 8.79864 16.3309H10.8997C10.8997 15.0642 10.8915 13.5207 10.5714 11.9352C10.8545 11.7842 11.2074 11.5577 11.5562 11.2305C12.2826 10.551 13.0007 9.36821 13.0007 7.70722C13.0007 6.16367 12.5206 4.8676 11.7532 3.91546C10.9858 2.96333 9.96815 2.35094 8.96278 1.90214C6.94793 1.00453 3.63213 0.314582 3.00428 0L2.49556 0.660592Z" fill="#20BF55"/>
</svg>
