<svg width="80" height="29" viewBox="0 0 80 29" fill="none" xmlns="http://www.w3.org/2000/svg">
<path fill-rule="evenodd" clip-rule="evenodd" d="M65.5263 10.1154C65.5263 5.06307 67.8993 1.60624 67.8993 1.60624L68.4738 0.858398C68.7512 0.997727 69.4933 1.2021 70.4303 1.46014C71.8883 1.86167 73.8181 2.39316 75.2034 3.01177C76.3389 3.51984 77.4883 4.21311 78.355 5.291C79.2216 6.36889 79.7639 7.83614 79.7639 9.58355C79.7639 11.4639 78.9528 12.803 78.1325 13.5722C77.7385 13.9426 77.34 14.199 77.0202 14.3699C77.3817 16.1648 77.391 17.9122 77.391 19.3463H75.018C75.018 19.1922 75.0184 19.0378 75.0188 18.8832C75.027 15.6919 75.0355 12.3915 71.5699 9.58355L73.0159 7.6462C74.6334 8.95676 75.6715 10.4288 76.3157 11.9388C76.3398 11.919 76.3606 11.9033 76.3805 11.8881C76.4181 11.8596 76.4527 11.8334 76.5011 11.7868C76.9414 11.369 77.391 10.7849 77.391 9.58355C77.391 8.32523 77.0387 7.518 76.5011 6.84847C75.9635 6.17895 75.2034 5.62813 74.2765 5.21502C73.3495 4.80038 72.3741 4.52129 71.4293 4.25095C70.7728 4.0631 70.1311 3.87948 69.5306 3.65755C69.0765 4.4078 67.8993 6.54932 67.8993 10.1154C67.8993 12.4326 68.5157 13.425 69.0486 13.9141C69.5816 14.4032 70.2119 14.4839 70.4576 14.4839C70.7642 14.4839 71.2962 14.243 71.9734 13.9362C72.2277 13.8211 72.5024 13.6966 72.7934 13.5722L73.6833 15.8135C73.4843 15.8987 73.2756 16.0073 73.0533 16.1231C72.3588 16.4846 71.5319 16.9151 70.4576 16.9151C69.8087 16.9151 68.562 16.7204 67.4543 15.6995C66.3467 14.6786 65.5263 12.8932 65.5263 10.1154ZM2.65963 26.0005C3.95803 27.3308 5.59438 27.9868 7.5331 27.9868C9.47182 27.9868 11.0904 27.3125 12.4066 25.964C13.7406 24.6155 14.3986 22.9755 14.3986 21.0438C14.3986 19.1122 13.7406 17.4721 12.4066 16.1054C11.0904 14.7386 9.47182 14.0644 7.55089 14.0644C5.62996 14.0644 4.01139 14.7386 2.67741 16.1054C1.36122 17.4721 0.703125 19.1304 0.703125 21.0803C0.703125 23.0301 1.36122 24.6702 2.65963 26.0005ZM10.4734 17.9589C11.2738 18.779 11.6651 19.7994 11.6651 21.0386C11.6829 22.2596 11.2916 23.2801 10.4912 24.1001C9.69082 24.9201 8.71257 25.321 7.55645 25.321C6.40034 25.321 5.42208 24.9201 4.6217 24.1001C3.83909 23.2801 3.44779 22.2596 3.44779 21.0386C3.44779 19.8177 3.83909 18.779 4.63948 17.9589C5.43987 17.1389 6.40034 16.7197 7.55645 16.7197C8.71257 16.7197 9.67303 17.1389 10.4734 17.9589ZM17.8647 22.4529V27.774H15.3568V17.8424H17.8113V19.2274C18.3271 18.2616 19.4832 17.5691 20.8528 17.5691C21.9022 17.5691 22.8093 17.9335 23.5385 18.6442C24.2678 19.3549 24.6413 20.3754 24.6413 21.7057V27.774H22.1334V22.3982C22.1334 20.8128 21.3152 19.9381 20.088 19.9381C18.754 19.9381 17.8647 20.9768 17.8647 22.4529ZM35.2734 23.692C35.3268 23.2911 35.3624 22.9084 35.3624 22.5622C35.3624 21.0132 34.8999 19.8105 33.9928 18.9176C33.0857 18.0247 31.9118 17.5691 30.5067 17.5691C29.0126 17.5691 27.8031 18.0611 26.8605 19.0451C25.9178 20.0292 25.4553 21.2684 25.4553 22.7809C25.4553 24.2205 25.9 25.4597 26.8071 26.4619C27.7142 27.4642 29.0126 27.9745 30.7201 27.9745C32.3209 27.9745 33.726 27.5189 34.9533 26.6077L33.9572 24.8036C33.1213 25.3868 31.8762 25.8059 30.8268 25.8059C29.2972 25.8059 28.3545 25.0952 27.9988 23.692H35.2734ZM28.0186 21.7964C28.3209 20.5026 29.2636 19.719 30.5264 19.719C31.8071 19.719 32.7142 20.5026 32.9454 21.7964H28.0186ZM35.2875 25.4538C36.3725 27.0756 38.2223 27.9686 40.2677 27.9686C41.7084 27.9686 42.8645 27.5859 43.7538 26.8205C44.6431 26.0551 45.0878 25.0711 45.0878 23.8684C45.0878 22.3741 44.3408 21.2625 42.8467 20.5153C42.5088 20.3513 41.9752 20.1144 41.2459 19.8046L39.9475 19.2215C39.2361 18.857 38.8804 18.4197 38.8804 17.8912C38.8804 17.1076 39.5207 16.5974 40.5701 16.5974C41.5483 16.5974 42.7222 17.053 43.4515 17.8548L44.8566 15.8867C43.6827 14.6657 42.242 14.0644 40.5345 14.0644C39.2183 14.0644 38.1333 14.4471 37.2974 15.1942C36.4614 15.9413 36.0523 16.8707 36.0523 18.0006C36.0523 19.422 36.746 20.5336 38.1333 21.3536C38.489 21.5541 39.0049 21.8092 39.6807 22.0825C39.7859 22.1239 39.8849 22.1629 39.9778 22.1994C40.4981 22.4039 40.8282 22.5337 40.9791 22.611C41.7795 22.9937 42.1708 23.4675 42.1708 24.0142C42.1708 24.8706 41.3704 25.4538 40.2855 25.4538C38.9337 25.4538 37.6531 24.7978 36.7993 23.5768L35.2875 25.4538ZM46.9719 19.0998C45.9937 20.1021 45.5134 21.3413 45.5134 22.7991C45.5134 24.2752 45.9937 25.5143 46.9719 26.5166C47.9502 27.5189 49.1952 28.0291 50.707 28.0291C52.2189 28.0291 53.4639 27.5189 54.4422 26.5166C55.4204 25.5143 55.9007 24.2752 55.9007 22.7991C55.9007 21.3413 55.4204 20.1021 54.4422 19.0998C53.4639 18.0793 52.2189 17.5691 50.707 17.5691C49.1952 17.5691 47.9502 18.0793 46.9719 19.0998ZM50.7122 25.6239C49.9474 25.6239 49.3071 25.3505 48.7913 24.8038C48.2755 24.2389 48.0265 23.5647 48.0265 22.7811C48.0265 21.9975 48.2755 21.3232 48.7913 20.7765C49.3071 20.2298 49.9474 19.9565 50.7122 19.9565C51.477 19.9565 52.0996 20.2298 52.6154 20.7765C53.1312 21.3232 53.398 21.9975 53.398 22.7811C53.398 23.5647 53.1312 24.2389 52.6154 24.8038C52.0996 25.3505 51.477 25.6239 50.7122 25.6239ZM59.2343 14.0133C59.8213 14.5965 59.8213 15.6534 59.2343 16.2548C58.6474 16.8561 57.6158 16.8561 57.0288 16.2548C56.4419 15.6534 56.4419 14.5965 57.0288 14.0133C57.6158 13.412 58.6474 13.412 59.2343 14.0133ZM56.8781 17.8341H59.386V27.7657H56.8781V17.8341ZM60.7809 13.9062H63.2888V27.7557H60.7809V13.9062Z" fill="#20BF55"/>
</svg>
