<svg width="16" height="14" viewBox="0 0 16 14" fill="none" xmlns="http://www.w3.org/2000/svg">
<path fill-rule="evenodd" clip-rule="evenodd" d="M10.1053 5.97869C10.1053 8.17998 8.29556 9.96448 6.06317 9.96448C3.83077 9.96448 2.02106 8.17998 2.02106 5.97869C2.02106 3.7774 3.83077 1.9929 6.06317 1.9929C8.29556 1.9929 10.1053 3.7774 10.1053 5.97869ZM10.2052 10.3449C9.12129 11.3451 7.66475 11.9574 6.06317 11.9574C2.71457 11.9574 0 9.28063 0 5.97869C0 2.67675 2.71457 0 6.06317 0C9.41176 0 12.1263 2.67675 12.1263 5.97869C12.1263 6.98233 11.8755 7.92822 11.4324 8.75873L15.6397 12.2399C16.0673 12.5937 16.123 13.2222 15.7643 13.6438C15.4056 14.0653 14.7682 14.1203 14.3406 13.7666L10.2052 10.3449Z" fill="#9B9B9B" fill-opacity="0.75"/>
</svg>
